<?xml version="1.0" standalone="no"?>
<!DOCTYPE svg PUBLIC "-//W3C//DTD SVG 20010904//EN"
 "http://www.w3.org/TR/2001/REC-SVG-20010904/DTD/svg10.dtd">
<svg version="1.0" xmlns="http://www.w3.org/2000/svg"
 width="150.000000pt" height="150.000000pt" viewBox="0 0 150.000000 150.000000"
 preserveAspectRatio="xMidYMid meet">
<metadata>
Created by potrace 1.14, written by Peter Selinger 2001-2017
</metadata>
<g transform="translate(0.000000,150.000000) scale(0.100000,-0.100000)"
fill="#000000" stroke="none">
<path d="M123 1489 c-45 -13 -100 -71 -113 -119 -7 -26 -10 -237 -8 -642 l3
-603 23 -37 c13 -20 40 -47 60 -60 l37 -23 625 0 625 0 37 23 c20 13 47 40 60
60 l23 37 0 625 c0 704 4 664 -77 718 l-42 27 -610 2 c-363 1 -624 -2 -643 -8z
m728 -239 c102 -28 142 -91 148 -229 4 -114 -10 -169 -55 -214 l-34 -34 44
-44 c51 -52 66 -104 66 -233 0 -106 -21 -176 -65 -221 -53 -52 -111 -65 -292
-65 l-153 0 0 525 0 525 153 0 c83 0 168 -5 188 -10z"/>
<path d="M680 970 l0 -140 34 0 c88 0 126 41 126 137 0 109 -27 143 -115 143
l-45 0 0 -140z"/>
<path d="M680 520 l0 -160 59 0 c44 0 65 5 85 21 25 20 26 23 26 135 0 109 -1
116 -25 139 -20 21 -34 25 -85 25 l-60 0 0 -160z"/>
</g>
</svg>
